<svg height="512" viewBox="0 0 60 60" width="512" xmlns="http://www.w3.org/2000/svg"><g id="Page-1" fill="none" fill-rule="evenodd"><g id="023---Rocket-CPU" fill-rule="nonzero"><g id="Icons_copy" transform="translate(1 1)"><rect id="Rectangle-path" fill="#9e9e9e" height="46" rx="3" width="46" x="6" y="6"/><path id="Shape" d="m49 6h-3c1.6568542 0 3 1.34314575 3 3v40c0 1.6568542-1.3431458 3-3 3h3c1.6568542 0 3-1.3431458 3-3v-40c0-1.65685425-1.3431458-3-3-3z" fill="#707070"/><g fill="#ffdf00"><path id="Shape" d="m2 19h4v4h-4c-1.1045695 0-2-.8954305-2-2s.8954305-2 2-2z"/><path id="Shape" d="m2 11h4v4h-4c-1.1045695 0-2-.8954305-2-2s.8954305-2 2-2z"/><path id="Shape" d="m2 27h4v4h-4c-1.1045695 0-2-.8954305-2-2s.8954305-2 2-2z"/><path id="Shape" d="m2 35h4v4h-4c-1.1045695 0-2-.8954305-2-2s.8954305-2 2-2z"/><path id="Shape" d="m2 43h4v4h-4c-1.1045695 0-2-.8954305-2-2s.8954305-2 2-2z"/><path id="Shape" d="m54 19h4v4h-4c-1.1045695 0-2-.8954305-2-2s.8954305-2 2-2z" transform="matrix(-1 0 0 -1 110 42)"/><path id="Shape" d="m54 11h4v4h-4c-1.1045695 0-2-.8954305-2-2s.8954305-2 2-2z" transform="matrix(-1 0 0 -1 110 26)"/><path id="Shape" d="m54 27h4v4h-4c-1.1045695 0-2-.8954305-2-2s.8954305-2 2-2z" transform="matrix(-1 0 0 -1 110 58)"/><path id="Shape" d="m54 35h4v4h-4c-1.1045695 0-2-.8954305-2-2s.8954305-2 2-2z" transform="matrix(-1 0 0 -1 110 74)"/><path id="Shape" d="m54 43h4v4h-4c-1.1045695 0-2-.8954305-2-2s.8954305-2 2-2z" transform="matrix(-1 0 0 -1 110 90)"/><path id="Shape" d="m36 1h4v4h-4c-1.1045695 0-2-.8954305-2-2s.8954305-2 2-2z" transform="matrix(0 1 -1 0 40 -34)"/><path id="Shape" d="m44 1h4v4h-4c-1.1045695 0-2-.8954305-2-2s.8954305-2 2-2z" transform="matrix(0 1 -1 0 48 -42)"/><path id="Shape" d="m28 1h4v4h-4c-1.1045695 0-2-.8954305-2-2s.8954305-2 2-2z" transform="matrix(0 1 -1 0 32 -26)"/><path id="Shape" d="m20 1h4v4h-4c-1.1045695 0-2-.8954305-2-2s.8954305-2 2-2z" transform="matrix(0 1 -1 0 24 -18)"/><path id="Shape" d="m12 1h4v4h-4c-1.1045695 0-2-.8954305-2-2s.8954305-2 2-2z" transform="matrix(0 1 -1 0 16 -10)"/><path id="Shape" d="m36 53h4v4h-4c-1.1045695 0-2-.8954305-2-2s.8954305-2 2-2z" transform="matrix(0 -1 1 0 -18 92)"/><path id="Shape" d="m44 53h4v4h-4c-1.1045695 0-2-.8954305-2-2s.8954305-2 2-2z" transform="matrix(0 -1 1 0 -10 100)"/><path id="Shape" d="m28 53h4v4h-4c-1.1045695 0-2-.8954305-2-2s.8954305-2 2-2z" transform="matrix(0 -1 1 0 -26 84)"/><path id="Shape" d="m20 53h4v4h-4c-1.1045695 0-2-.8954305-2-2s.8954305-2 2-2z" transform="matrix(0 -1 1 0 -34 76)"/><path id="Shape" d="m12 53h4v4h-4c-1.1045695 0-2-.8954305-2-2s.8954305-2 2-2z" transform="matrix(0 -1 1 0 -42 68)"/></g><path id="Shape" d="m36 27.13c-.1209305 4.4053177-.6025411 8.7933256-1.44 13.12-.09.43-.16.81-.23 1.15-.1901074.9313325-1.0094628 1.600194-1.96 1.6h-6.75c-.9505372.000194-1.7698926-.6686675-1.96-1.6-.07-.34-.14-.72-.23-1.15-.8375286-4.3232947-1.3191423-8.7079863-1.44-13.11-.0184423-1.3830678.0517012-2.7658973.21-4.14.215102-1.7106788.6347706-3.3893531 1.25-5 .9609674-2.5735627 2.2879506-4.9951387 3.94-7.19.3729406-.5050686.9621681-.8047589 1.5899925-.8086952.6278245-.00393615 1.2207633.2883425 1.6000075.7886952 1.6611457 2.2012267 2.9980834 4.6292672 3.97 7.21.6072536 1.6124988 1.0234258 3.2906127 1.24 5 .1585708 1.3707324.2287159 2.750253.21 4.13z" fill="#f44335"/><path id="Shape" d="m35.79 23c-.2165742-1.7093873-.6327464-3.3875012-1.24-5-.9719166-2.5807328-2.3088543-5.0087733-3.97-7.21-.3626144-.4778228-.9221141-.7657216-1.5217013-.7830136-.5995872-.01729209-1.1747492.2378831-1.5642987.6940136.027.031.06.055.086.089 1.6611457 2.2012267 2.9980834 4.6292672 3.97 7.21.6072536 1.6124988 1.0234258 3.2906127 1.24 5 .1585708 1.3707324.2287159 2.750253.21 4.13-.1209305 4.4053177-.6025411 8.7933256-1.44 13.12-.09.43-.16.81-.23 1.15-.1901074.9313325-1.0094628 1.600194-1.96 1.6h3c.9505372.000194 1.7698926-.6686675 1.96-1.6.07-.34.14-.72.23-1.15.8374589-4.3266744 1.3190695-8.7146823 1.44-13.12.0187159-1.379747-.0514292-2.7592676-.21-4.13z" fill="#c81e1e"/><path id="Shape" d="m32 43c-.2178999 2.3038132-1.2876894 4.4433922-3 6-1.7123106-1.5566078-2.7821001-3.6961868-3-6" fill="#ff9801"/><circle id="Oval" cx="28.999" cy="26" fill="#00bcd4" r="4"/><path id="Shape" d="m23.43 40.25c-2.4611445.2880951-4.8153856 1.1700775-6.86 2.57-.3263335.2261384-.7555407.2378018-1.0936738.0297199s-.5211407-.5964929-.4663262-.9897199c.82-6.9 5.11-12.55 6.98-14.72.1208577 4.4020137.6024714 8.7867053 1.44 13.11z" fill="#9e9e9e"/><path id="Shape" d="m21.99 27.14c-1.0292645 1.2013493-1.9729176 2.4734767-2.824 3.807.264741 3.1192759.68661 6.2232174 1.264 9.3-1.8986267.2124621-3.7383318.7897043-5.418 1.7-.0179825.3776485.1798345.7328015.5103828.9163216.3305482.18352.7365895.1636285 1.0476172-.0513216 2.0446144-1.3999225 4.3988555-2.2819049 6.86-2.57-.8370943-4.3206652-1.3187061-8.7026634-1.44-13.102z" fill="#707070"/><path id="Shape" d="m42.99 41.86c.0548145.393227-.1281931.781638-.4663262.9897199s-.7673403.1964185-1.0936738-.0297199c-2.0462246-1.4039538-4.4047204-2.2862441-6.87-2.57.8374589-4.3266744 1.3190695-8.7146823 1.44-13.12 1.87 2.17 6.17 7.82 6.99 14.73z" fill="#9e9e9e"/><path id="Shape" d="m36 27.13c-.01 1.255-.076 2.537-.176 3.8 2.1842135 3.2881869 3.6074396 7.0221909 4.166 10.93v.094c.544.292 1.031.589 1.442.866.3263335.2261384.7555407.2378018 1.0936738.0297199s.5211407-.5964929.4663262-.9897199c-.822-6.91-5.122-12.56-6.992-14.73z" fill="#707070"/></g><g id="Icons" fill="#000"><path id="Shape" d="m57 17c1.6568542 0 2.9999999-1.3431458 2.9999999-3s-1.3431457-3-2.9999999-3h-3v-1c0-2.209139-1.790861-4-4-4h-1v-3c0-1.65685425-1.3431458-3-3-3s-3 1.34314575-3 3v3h-2v-3c0-1.65685425-1.3431458-3-3-3s-3 1.34314575-3 3v3h-2v-3c0-1.65685425-1.3431458-3-3-3s-3 1.34314575-3 3v3h-2v-3c0-1.65685421-1.3431458-2.99999991-3-2.99999991s-3 1.3431457-3 2.99999991v3h-2v-3c0-1.65685422-1.3431458-2.99999994-3-2.99999994s-3 1.34314572-3 2.99999994v3h-1c-2.209139 0-4 1.790861-4 4v1h-3c-1.65685422 0-2.99999994 1.3431458-2.99999994 3s1.34314572 3 2.99999994 3h3v2h-3c-1.65685421 0-2.99999991 1.3431458-2.99999991 3s1.3431457 3 2.99999991 3h3v2h-3c-1.65685425 0-3 1.3431458-3 3s1.34314575 3 3 3h3v2h-3c-1.65685425 0-3 1.3431458-3 3s1.34314575 3 3 3h3v2h-3c-1.65685425 0-3 1.3431458-3 3s1.34314575 3 3 3h3v1c0 2.209139 1.790861 4 4 4h1v3c0 1.6568542 1.3431458 2.9999999 3 2.9999999s3-1.3431457 3-2.9999999v-3h2v3c0 1.6568542 1.3431458 2.9999999 3 2.9999999s3-1.3431457 3-2.9999999v-3h2v3c0 1.6568542 1.3431458 3 3 3s3-1.3431458 3-3v-3h2v3c0 1.6568542 1.3431458 3 3 3s3-1.3431458 3-3v-3h2v3c0 1.6568542 1.3431458 3 3 3s3-1.3431458 3-3v-3h1c2.209139 0 4-1.790861 4-4v-1h3c1.6568542 0 3-1.3431458 3-3s-1.3431458-3-3-3h-3v-2h3c1.6568542 0 3-1.3431458 3-3s-1.3431458-3-3-3h-3v-2h3c1.6568542 0 3-1.3431458 3-3s-1.3431458-3-3-3h-3v-2h3c1.6568542 0 2.9999999-1.3431458 2.9999999-3s-1.3431457-3-2.9999999-3h-3v-2zm0-4c.5522847 0 1 .4477153 1 1s-.4477153 1-1 1h-3v-2zm-12-10c0-.55228475.4477153-1 1-1s1 .44771525 1 1v3h-2zm-8 0c0-.55228475.4477153-1 1-1s1 .44771525 1 1v3h-2zm-8 0c0-.55228475.4477153-1 1-1s1 .44771525 1 1v3h-2zm-8 0c0-.55228475.4477153-1 1-1s1 .44771525 1 1v3h-2zm-8 0c0-.55228475.4477153-1 1-1s1 .44771525 1 1v3h-2zm-10 12c-.55228475 0-1-.4477153-1-1s.44771525-1 1-1h3v2zm0 8c-.55228475 0-1-.4477153-1-1s.44771525-1 1-1h3v2zm0 8c-.55228475 0-1-.4477153-1-1s.44771525-1 1-1h3v2zm0 8c-.55228475 0-1-.4477153-1-1s.44771525-1 1-1h3v2zm0 8c-.55228475 0-1-.4477153-1-1s.44771525-1 1-1h3v2zm12 10c0 .5522847-.4477153 1-1 1s-1-.4477153-1-1v-3h2zm8 0c0 .5522847-.4477153 1-1 1s-1-.4477153-1-1v-3h2zm8 0c0 .5522847-.4477153 1-1 1s-1-.4477153-1-1v-3h2zm8 0c0 .5522847-.4477153 1-1 1s-1-.4477153-1-1v-3h2zm8 0c0 .5522847-.4477153 1-1 1s-1-.4477153-1-1v-3h2zm5-7c0 1.1045695-.8954305 2-2 2h-40c-1.1045695 0-2-.8954305-2-2v-40c0-1.1045695.8954305-2 2-2h40c1.1045695 0 2 .8954305 2 2zm5-5c.5522847 0 1 .4477153 1 1s-.4477153 1-1 1h-3v-2zm0-8c.5522847 0 1 .4477153 1 1s-.4477153 1-1 1h-3v-2zm0-8c.5522847 0 1 .4477153 1 1s-.4477153 1-1 1h-3v-2zm0-8c.5522847 0 1 .4477153 1 1s-.4477153 1-1 1h-3v-2z"/><path id="Shape" d="m37.781 23.88c-.2273129-1.7980799-.6663586-3.56299-1.308-5.258l-.008-.019c-1.0078103-2.6510512-2.3818126-5.1479522-4.082-7.418-.5618541-.7500865-1.4458298-1.18966317-2.383-1.185-.9445324-.00110486-1.8341645.4437112-2.4 1.2-2.8279064 3.7083066-4.6807471 8.0665564-5.389 12.676-.1486917 1.2912434-.2198193 2.5902414-.213 3.89-1.998 2.376-6.159 8.051-6.981 14.968-.1039986.7827126.2622429 1.5533496.9348089 1.9670036.6725659.413654 1.5255507.3928881 2.1771911-.0530036 1.6598395-1.12856 3.5350922-1.9017442 5.508-2.271l.043.221c.2478602 1.2089704 1.2094708 2.1436161 2.425 2.357.4543504 2.1961957 1.5658606 4.2022849 3.187 5.752.3904999.3903819 1.0235001.3903819 1.414 0 1.6214044-1.549765 2.7326559-3.5563656 3.186-5.753 1.211599-.2151106 2.1689698-1.1482995 2.415-2.354.014-.069.03-.152.044-.224 1.9757698.3674643 3.8537313 1.1411231 5.515 2.272.6493183.4504632 1.5039888.4728511 2.176.057.6753721-.408619 1.0444489-1.178576.94-1.961-.821-6.922-4.988-12.606-6.988-14.983.0063811-1.2967548-.0647457-2.592732-.213-3.881zm-8.59-11.472c.1901141-.2561137.4900373-.4073728.809-.408.3085055-.0033726.5998324.1417328.783.39 1.3017013 1.7399377 2.4017399 3.6219798 3.279 5.61h-8.136c.8735267-1.9813888 1.9688533-3.8573663 3.265-5.592zm-12.191 30.57c.6711064-4.3902674 2.423723-8.5446562 5.1-12.089.2143291 3.1933268.6062689 6.3722454 1.174 9.522-2.2437863.4213011-4.3784075 1.2946789-6.274 2.567zm13 5.54c-.8727848-1.0176968-1.5023671-2.2207769-1.841-3.518h3.678c-.3375838 1.2968166-.9657682 2.4998393-1.837 3.518zm3.369-5.518h-6.75c-.4745171-.0008523-.8830972-.3350692-.978-.8-.684-3.408-2.194-11.991-1.45-18.083.1774304-1.4015322.4984507-2.7811151.958-4.117h9.69c.4598358 1.3374529.7805318 2.718758.957 4.122.745 6.09-.766 14.674-1.45 18.082-.0964746.4629742-.5040819.7950677-.977.796zm9.62-.009c-1.8889265-1.2852569-4.0238878-2.1647792-6.27-2.583.5681816-3.1520376.9601235-6.333311 1.174-9.529 2.6798129 3.5505309 4.4313804 7.7135971 5.096 12.112z"/><path id="Shape" d="m30 22c-2.7614237 0-5 2.2385763-5 5s2.2385763 5 5 5 5-2.2385763 5-5c-.0033061-2.7600532-2.2399468-4.9966939-5-5zm0 8c-1.6568542 0-3-1.3431458-3-3s1.3431458-3 3-3 3 1.3431458 3 3-1.3431458 3-3 3z"/></g></g></g></svg>