<svg data-v-423bf9ae="" xmlns="http://www.w3.org/2000/svg" viewBox="0 0 658 90" class="iconLeft"><!----><!----><!----><g data-v-423bf9ae="" id="8142b5cf-560d-48ab-b266-64194c6d121f" fill="green" transform="matrix(4.966887448588033,0,0,4.966887448588033,75.92083771830238,-3.625828885879443)"><path d="M10.00 15.82L5.42 11.24L0.84 15.82L0.84 4.07C0.84 3.92 0.97 3.79 1.11 3.79L2.73 3.79C2.88 3.79 3.00 3.92 3.00 4.07L3.00 10.61L5.42 8.19L7.84 10.61L7.84 4.07C7.84 3.92 7.97 3.79 8.12 3.79L9.73 3.79C9.88 3.79 10.00 3.92 10.00 4.07ZM19.88 15.54C19.88 15.69 19.75 15.82 19.61 15.82L11.96 15.82C11.80 15.82 11.68 15.69 11.68 15.54L11.68 4.06C11.68 3.91 11.80 3.78 11.96 3.78L19.33 3.78C19.49 3.78 19.61 3.91 19.61 4.06L19.61 5.70C19.61 5.85 19.49 5.96 19.33 5.96L13.86 5.96L13.86 8.71L19.05 8.71C19.21 8.71 19.33 8.82 19.33 8.97L19.33 10.61C19.33 10.77 19.21 10.89 19.05 10.89L13.86 10.89L13.86 13.62L19.61 13.62C19.75 13.62 19.88 13.75 19.88 13.90ZM29.04 9.80C29.79 9.13 30.17 8.23 30.17 7.34C30.17 6.38 29.74 5.46 28.97 4.80C28.17 4.13 27.08 3.78 25.80 3.78L21.70 3.78C21.55 3.78 21.42 3.91 21.42 4.07L21.42 5.21L23.76 8.71L21.42 8.71L21.42 15.53C21.42 15.68 21.55 15.82 21.70 15.82L25.80 15.82C28.67 15.82 30.17 14.03 30.17 12.26C30.17 11.33 29.76 10.44 29.04 9.80ZM24.56 5.96L25.80 5.96C27.30 5.96 27.99 6.68 27.99 7.34C27.99 7.91 27.47 8.51 26.36 8.67ZM23.60 13.62L23.60 10.89L25.80 10.89C27.30 10.89 27.99 11.61 27.99 12.26C27.99 12.92 27.30 13.62 25.80 13.62ZM37.06 11.45C37.06 11.61 36.92 11.73 36.72 11.73L31.70 11.73C31.56 11.73 31.43 11.61 31.43 11.45L31.43 9.83C31.43 9.67 31.56 9.56 31.70 9.56L36.72 9.56C36.92 9.56 37.06 9.67 37.06 9.83ZM46.52 12.05C46.52 13.22 46.05 14.22 45.16 14.92C44.42 15.50 43.46 15.82 42.42 15.82C41.38 15.82 40.42 15.50 39.68 14.92C38.79 14.22 38.32 13.22 38.32 12.05L38.32 4.07C38.32 3.92 38.44 3.78 38.60 3.78L40.24 3.78C40.39 3.78 40.50 3.92 40.50 4.07L40.50 12.05C40.50 13.58 42.22 13.64 42.42 13.64C42.62 13.64 44.34 13.58 44.34 12.05L44.34 4.07C44.34 3.92 44.46 3.78 44.60 3.78L46.26 3.78C46.40 3.78 46.52 3.92 46.52 4.07ZM56.06 5.68C56.06 5.84 55.90 5.96 55.72 5.96L53.05 5.96L53.05 15.47C53.05 15.65 52.92 15.81 52.78 15.81L51.13 15.81C50.99 15.81 50.86 15.65 50.86 15.47L50.86 5.96L48.13 5.96C47.98 5.96 47.85 5.84 47.85 5.68L47.85 4.05C47.85 3.89 47.98 3.78 48.13 3.78L55.72 3.78C55.90 3.78 56.06 3.89 56.06 4.05ZM61.77 5.95L61.77 13.61L63.60 13.61C63.80 13.61 63.95 13.73 63.95 13.89L63.95 15.53C63.95 15.68 63.80 15.81 63.60 15.81L57.67 15.81C57.51 15.81 57.39 15.68 57.39 15.53L57.39 13.89C57.39 13.73 57.51 13.61 57.67 13.61L59.57 13.61L59.57 5.95L57.67 5.95C57.51 5.95 57.39 5.84 57.39 5.68L57.39 4.05C57.39 3.89 57.51 3.77 57.67 3.77L63.60 3.77C63.80 3.77 63.95 3.89 63.95 4.05L63.95 5.68C63.95 5.84 63.80 5.95 63.60 5.95ZM72.34 15.54C72.34 15.69 72.18 15.81 71.99 15.81L66.05 15.81C65.90 15.81 65.77 15.69 65.77 15.54L65.77 4.12C65.77 3.93 65.90 3.78 66.05 3.78L67.69 3.78C67.84 3.78 67.96 3.93 67.96 4.12L67.96 13.62L71.99 13.62C72.18 13.62 72.34 13.75 72.34 13.90ZM78.12 5.95L78.12 13.61L79.95 13.61C80.15 13.61 80.30 13.73 80.30 13.89L80.30 15.53C80.30 15.68 80.15 15.81 79.95 15.81L74.02 15.81C73.86 15.81 73.74 15.68 73.74 15.53L73.74 13.89C73.74 13.73 73.86 13.61 74.02 13.61L75.92 13.61L75.92 5.95L74.02 5.95C73.86 5.95 73.74 5.84 73.74 5.68L73.74 4.05C73.74 3.89 73.86 3.77 74.02 3.77L79.95 3.77C80.15 3.77 80.30 3.89 80.30 4.05L80.30 5.68C80.30 5.84 80.15 5.95 79.95 5.95ZM89.84 5.68C89.84 5.84 89.68 5.96 89.50 5.96L86.83 5.96L86.83 15.47C86.83 15.65 86.70 15.81 86.56 15.81L84.91 15.81C84.77 15.81 84.64 15.65 84.64 15.47L84.64 5.96L81.91 5.96C81.76 5.96 81.63 5.84 81.63 5.68L81.63 4.05C81.63 3.89 81.76 3.78 81.91 3.78L89.50 3.78C89.68 3.78 89.84 3.89 89.84 4.05ZM95.55 5.95L95.55 13.61L97.38 13.61C97.58 13.61 97.73 13.73 97.73 13.89L97.73 15.53C97.73 15.68 97.58 15.81 97.38 15.81L91.45 15.81C91.29 15.81 91.17 15.68 91.17 15.53L91.17 13.89C91.17 13.73 91.29 13.61 91.45 13.61L93.35 13.61L93.35 5.95L91.45 5.95C91.29 5.95 91.17 5.84 91.17 5.68L91.17 4.05C91.17 3.89 91.29 3.77 91.45 3.77L97.38 3.77C97.58 3.77 97.73 3.89 97.73 4.05L97.73 5.68C97.73 5.84 97.58 5.95 97.38 5.95ZM107.62 15.54C107.62 15.69 107.49 15.82 107.35 15.82L99.69 15.82C99.54 15.82 99.41 15.69 99.41 15.54L99.41 4.06C99.41 3.91 99.54 3.78 99.69 3.78L107.07 3.78C107.23 3.78 107.35 3.91 107.35 4.06L107.35 5.70C107.35 5.85 107.23 5.96 107.07 5.96L101.60 5.96L101.60 8.71L106.79 8.71C106.95 8.71 107.07 8.82 107.07 8.97L107.07 10.61C107.07 10.77 106.95 10.89 106.79 10.89L101.60 10.89L101.60 13.62L107.35 13.62C107.49 13.62 107.62 13.75 107.62 13.90ZM117.08 12.28C117.08 12.38 117.07 13.22 116.54 14.07C116.05 14.88 115.04 15.83 112.98 15.83C111.36 15.83 110.08 15.15 109.40 13.93C109.07 13.34 108.95 12.77 108.91 12.40C108.91 12.38 108.89 12.35 108.89 12.32C108.89 12.18 109.00 12.05 109.14 12.04L110.87 12.04C110.98 12.05 111.06 12.12 111.09 12.24L111.09 12.25C111.09 12.26 111.10 12.28 111.10 12.29C111.13 12.46 111.20 12.70 111.34 12.91C111.64 13.40 112.18 13.65 112.98 13.65C113.83 13.65 114.38 13.41 114.67 12.94C114.87 12.61 114.90 12.26 114.90 12.26C114.90 11.87 114.80 11.41 114.07 11.12C113.54 10.89 112.98 10.88 112.98 10.88C112.88 10.88 111.99 10.86 111.06 10.50C109.65 9.93 108.88 8.81 108.88 7.34C108.88 7.20 108.91 5.89 109.93 4.87C110.66 4.13 111.69 3.75 112.98 3.75C113.81 3.75 115.00 3.93 115.91 4.86C116.79 5.75 117.01 6.89 117.07 7.45L117.07 7.48C117.07 7.64 116.96 7.77 116.80 7.77L115.11 7.77C115.00 7.76 114.90 7.66 114.87 7.55L114.87 7.50C114.83 7.31 114.76 7.03 114.62 6.75C114.42 6.40 114.04 5.94 112.98 5.94C112.29 5.94 111.79 6.09 111.47 6.41C111.09 6.79 111.06 7.34 111.06 7.34C111.06 7.73 111.16 8.18 111.89 8.47C112.42 8.68 112.98 8.69 112.98 8.69C113.08 8.69 113.97 8.71 114.90 9.09C116.31 9.67 117.08 10.81 117.08 12.28Z"></path></g><!----><g data-v-423bf9ae="" id="72879b8f-22d4-4b8a-bdd3-5649ddc62685" transform="matrix(1.020639332364994,0,0,1.020639332364994,-15.37674011920501,-6.140759531835393)" stroke="none" fill="black"><path d="M70.145 51.241c-.652-1.755-2.754-3.322-6.428-4.791a41.968 41.968 0 0 0-2.889-1.026c.168-.603.285-1.236.352-1.905.082-.841.085-1.754.007-2.75l13.691 5.018-1.111-3.146c-.063-.177-1.552-4.374-3.662-9.179-2.893-6.584-5.457-10.913-7.626-12.863-2.265-2.038-4.632-3.318-7.034-3.807-1.745-.355-3.522-.281-5.142.214a9.001 9.001 0 0 0-.933.341c-5.312-4.998-11.086-7.85-14.457-9.226-2.585-1.257-4.841-1.605-6.706-1.036a5.282 5.282 0 0 0-.3.101 5.19 5.19 0 0 0-.682.16c-1.125.344-2.093 1.04-2.877 2.069-.915 1.201-1.554 2.851-1.9 4.903-.848 3.587-1.893 10.047-.852 17.366a11.134 11.134 0 0 0-2.608 2.249c-1.592 1.863-3.388 5.212-2.909 10.585.264 2.951 2.296 7.574 6.039 13.739a137.707 137.707 0 0 0 5.448 8.266l1.831 2.534 4.473-14.214c1.224 1.135 2.333 1.947 3.497 2.455.033.016.067.029.1.043a39.311 39.311 0 0 0-.958 2.464c-1.27 3.641-1.579 6.481-.918 8.442.256.76.919 1.224 1.973 1.375.486.071 1.13.086 1.899.047l-.009.054c-.06.401-.1.851-.118 1.347-.008.494.002 1.039.068 1.621.031.291.076.592.134.902.062.307.115.636.266.93.333.573.643 1.192 1.05 1.79.399.601.866 1.19 1.39 1.757a15.784 15.784 0 0 0 1.749 1.608c.639.499 1.326.962 2.051 1.385.726.421 1.491.798 2.282 1.137l.297.127.3.118c.101.04.201.082.302.119l.305.112.579.211c.174.068.34.131.521.207.712.291 1.417.637 2.111 1.02a24.863 24.863 0 0 1 3.966 2.769 28.321 28.321 0 0 1 3.424 3.461c.51.616.986 1.249 1.398 1.884.207.315.396.634.548.933.075.147.141.292.18.4l.015.039.009.03c.005.011.006.017.007.021l.001.005c.003.022.006.059.011.087.003.022.009.06.017.098.01.044.02.099.054.203.176.089-.249.322 1.034.956 1.792-.038 1.415-.704 1.617-.688.057-.099.082-.162.101-.205.017-.041.028-.074.036-.099l.021-.066.015-.049.02-.077c.012-.046.02-.083.027-.118.015-.07.025-.13.036-.188.021-.117.039-.225.056-.33.033-.212.062-.415.091-.616.054-.404.104-.796.153-1.186.096-.778.185-1.534.269-2.271l.063-.548c.023-.183.053-.36.081-.538a7.51 7.51 0 0 0 .072-.531c.017-.176.021-.353.02-.528l-.019-1.476.199.151.726.547c.241.182.485.359.729.54.487.357.976.714 1.468 1.064l1.235.883.026-1.702.009-.497a42.986 42.986 0 0 1 .224-3.538c.071-.663.164-1.319.281-1.958.119-.638.265-1.26.451-1.844a9.088 9.088 0 0 1 .401-1.033l.108-.236.108-.238.113-.257c.076-.172.146-.338.217-.508.07-.169.137-.339.204-.509.133-.342.259-.686.376-1.032a24.96 24.96 0 0 0 .865-3.191c.068-.363.136-.726.189-1.089.055-.366.101-.732.14-1.1.037-.367.061-.735.084-1.105a22.654 22.654 0 0 0-.004-2.214 20.082 20.082 0 0 0-.244-2.203 18.388 18.388 0 0 0-1.239-4.222c-.29-.671-.623-1.32-.998-1.942a15.563 15.563 0 0 0-1.241-1.772 13.441 13.441 0 0 0-1.261-1.349c.151-.2.3-.403.442-.606.712-1.02.88-2.185.473-3.285zM54.819 19.869c1.846.376 3.716 1.406 5.559 3.064 3.05 2.744 7.015 11.846 9.245 17.584l-8.718-3.194a43.2 43.2 0 0 0-1.618-4.964c-1.786-5.037-4.469-9.158-7.465-12.502a7.466 7.466 0 0 1 2.997.012zM28.301 62.083c-3.433-5.081-8.723-13.686-9.094-17.844-.302-3.372.395-6.113 2.069-8.148.319-.387.646-.713.956-.982.875 3.801 2.373 7.741 4.782 11.562.224.372.443.725.656 1.057a41.19 41.19 0 0 0 3.622 4.851l-2.991 9.504zm5.217-12.079a34.312 34.312 0 0 1-3.902-5.098c-1.723-2.896-3.669-7.018-4.388-11.723-.091-.594-.178-1.164-.472-1.608-1.061-6.985-.047-13.192.758-16.583l.013-.053.009-.053c.42-2.541 1.346-4.153 2.605-4.538.117-.036.236-.061.357-.076l.211-.026.197-.082a2.77 2.77 0 0 1 .217-.077c1.075-.329 2.616-.025 4.456.876l.049.024.05.021c3.266 1.329 9.011 4.164 14.142 9.208.209.311.49.596.767.875 3.763 3.808 6.127 8.408 7.448 11.596.101.243.197.482.289.717a34.521 34.521 0 0 1 1.246 4.409c.623 2.925 1.031 6.245-.675 8.7-1.363 1.963-3.955 3.482-7.748 5.561-2.329.976-4.19 1.718-5.686 2.176h-.001c-2.215.677-3.571.726-4.835.172-1.437-.627-2.961-2.095-5.107-4.418zm5.943 10.87a37.46 37.46 0 0 1 1.169-2.931c1.098-.021 2.313-.251 3.748-.689h.001c1.643-.502 3.537-1.259 6.058-2.314l.077-.032.071-.04c4.224-2.313 7.125-4.021 8.89-6.562l.008-.011c.835.255 1.955.625 3.098 1.083 3.94 1.581 4.541 2.74 4.62 2.957.031.082.059.159-.1.385-1.74 2.478-4.218 4.758-7.365 6.778-2.688 1.727-5.795 3.227-9.236 4.459-5.79 2.072-10.433 2.647-12.078 2.598-.11-.977.008-2.717 1.039-5.681zM62.29 93.662v-.003.003zm-.004-.029l.001.01c0-.003-.002-.007-.001-.01l-.001-.011.001.011zm2.892-.256c.001.003 0 .003 0 0zm4.71-36.537c.137.316.256.64.376.961.06.159.114.322.171.482l.156.486c.204.646.376 1.299.52 1.954a23.03 23.03 0 0 1 .519 4.934c.001.164-.003.329-.004.492-.006.165-.009.33-.018.494-.012.328-.035.655-.06.981-.024.328-.062.655-.099.981a25.402 25.402 0 0 1-.306 1.946 30.026 30.026 0 0 1-.709 2.876c-.097.314-.193.632-.299.943-.104.313-.217.626-.328.938-.059.155-.115.312-.176.466-.061.153-.12.312-.18.46l-.09.226-.101.24-.102.243a9.214 9.214 0 0 0-.305.861c-.061.19-.111.381-.158.571a15.066 15.066 0 0 0-.362 2.257c-.064.743-.077 1.48-.061 2.211.021.729.072 1.453.156 2.17.022.199.049.398.076.598a2.37 2.37 0 0 0-.101-.049c-.274-.128-.547-.257-.823-.383l-.826-.378c-.235-.107-.472-.212-.709-.317-.008-.489-.021-.963-.03-1.418-.012-.593-.029-1.155-.046-1.684a114.34 114.34 0 0 0-.05-1.481c-.018-.457-.032-.878-.051-1.257-.034-.76-.065-1.356-.088-1.764l-.038-.625-.162.604c-.103.394-.255.973-.44 1.71-.095.367-.195.775-.306 1.22-.112.443-.229.925-.353 1.438-.125.513-.259 1.059-.394 1.635l-.169.713c-.172-.069-.344-.138-.516-.204.155.132.312.262.471.392-.071.297-.144.602-.215.912l-.459 1.969c-.04.171-.073.343-.096.519a8.314 8.314 0 0 0-.047.529c-.011.18-.021.359-.039.54-.021.181-.04.362-.062.545l-.046.399c-.179-.23-.36-.458-.546-.683a31.178 31.178 0 0 0-3.782-3.824 27.826 27.826 0 0 0-4.435-3.093 22.792 22.792 0 0 0-3.047-1.416c-.193-.071-.386-.142-.578-.211l-.271-.1-.266-.104-.265-.104-.26-.111a17.91 17.91 0 0 1-1.966-.978 15.062 15.062 0 0 1-1.712-1.157 12.55 12.55 0 0 1-1.417-1.301 10.92 10.92 0 0 1-1.101-1.393c-.082-.117-.153-.237-.229-.354-.07-.119-.142-.236-.207-.355l-.098-.178a2.311 2.311 0 0 1-.084-.182c-.055-.12-.091-.247-.145-.364a1.825 1.825 0 0 0-.183-.336c-.075-.104-.146-.211-.217-.314a12.538 12.538 0 0 1-1.007-1.862 12.927 12.927 0 0 1-.45-1.182c2.205-.236 5.113-.824 8.288-1.794a56.59 56.59 0 0 0 3.248-1.099c3.549-1.318 6.762-2.912 9.548-4.739 3.059-2.003 5.55-4.261 7.42-6.716.27.538.519 1.072.741 1.614z"></path><path d="M60.815 81.313a6.375 6.375 0 0 0-.14-.319 7.19 7.19 0 0 0-.191-.388 9.535 9.535 0 0 0-.958-1.45 10.364 10.364 0 0 0-.989-1.073 12.643 12.643 0 0 0-1.253-1.04 15.189 15.189 0 0 0-1.438-.931c-.248-.146-.501-.281-.751-.416-.251-.131-.5-.262-.745-.383-.243-.126-.482-.243-.707-.362-.227-.115-.441-.23-.629-.342l-.036-.021-.028-.017-.055-.033-.027-.017c-.01-.005-.018-.009-.033-.021l-.085-.057-.284-.191-.294-.203c-.099-.066-.194-.133-.288-.199a25.519 25.519 0 0 1-2.009-1.531 11.974 11.974 0 0 1-.767-.713 8.553 8.553 0 0 1-.782-.906c-.06-.081-.107-.152-.148-.212-.04-.06-.069-.107-.09-.141l-.03-.051s-.012.017-.031.053a2.39 2.39 0 0 0-.163.424 3.546 3.546 0 0 0-.075.373 4.027 4.027 0 0 0-.007 1.031c.044.396.148.838.323 1.295.173.457.416.931.727 1.386.31.456.684.898 1.107 1.306.107.102.213.206.327.3.113.096.224.197.344.286l.177.138.044.035.022.017.011.009.006.005a.386.386 0 0 1 .032.022l.084.059.085.058.053.035.059.038.121.075.059.037.054.031c.286.171.562.311.836.442.138.066.271.126.406.187.132.061.268.117.398.171.527.223 1.035.417 1.529.608.495.19.97.377 1.429.562.457.186.895.373 1.309.561.415.188.81.372 1.17.558.363.183.699.359.996.524.074.041.147.081.219.118l.202.115c.064.037.128.071.188.104.062.033.117.068.172.1.107.064.211.116.295.168.085.051.16.091.221.127l.189.103s-.022-.072-.069-.203c-.025-.064-.053-.147-.092-.241zM42.342 39.942a8.406 8.406 0 0 0 1.394-.568c4.068-2.104 5.667-7.125 3.564-11.193a8.3 8.3 0 0 0-11.193-3.563c-4.068 2.104-5.667 7.125-3.564 11.192a8.299 8.299 0 0 0 9.799 4.132zm-4.793-12.535a5.158 5.158 0 0 1 6.961 2.217 5.172 5.172 0 0 1-3.086 7.316 5.162 5.162 0 0 1-6.092-2.571 5.173 5.173 0 0 1 2.217-6.962z"></path></g><!----></svg>