<svg xmlns="http://www.w3.org/2000/svg" viewBox="0 0 1123.49 1000"><defs><style>.cls-1{fill:#1e95f6;}.cls-2{fill:#2172f4;}.cls-3{fill:#0b61dd;}.cls-4{fill:#fff;}.cls-5{fill:#f9b121;}.cls-6{fill:#bbd6ff;}.cls-7{fill:#ff6662;}.cls-8{fill:#ea3d3d;}</style></defs><g id="Layer_2" data-name="Layer 2"><g id="Layer_1-2" data-name="Layer 1"><path class="cls-1" d="M635.69,0H600.47C481.32,0,384.39,96.93,384.39,216.07V456.16h89.18V216.07a127,127,0,0,1,126.9-126.9h35.22a127,127,0,0,1,126.9,126.9V456.16h89.17V216.07C851.76,96.93,754.83,0,635.69,0Z"/><rect class="cls-1" x="386.85" y="400.38" width="586.36" height="586.36" rx="27.44"/><path class="cls-2" d="M785.6,986.73V400.38h60.26a62.27,62.27,0,0,1,62,57.1l-14.4,468.9a62.27,62.27,0,0,1-62.24,60.35H785.6"/><polygon class="cls-2" points="762.59 349.13 851.76 368.59 853.71 408.48 762.59 400.38 762.59 349.13"/><polygon class="cls-2" points="384.39 349.13 473.56 368.59 475.51 408.48 384.39 400.38 384.39 349.13"/><rect class="cls-1" x="269.3" y="400.38" width="586.36" height="586.36" rx="27.44"/><path class="cls-2" d="M618.08,789.19,601.75,653.66a47.35,47.35,0,1,0-64.68,0L520.74,789.19Z"/><path class="cls-3" d="M601.75,653.66a47.32,47.32,0,0,0-47.31-79.48,47.32,47.32,0,0,1,17.38,79.48l16.33,135.53h29.93Z"/><path class="cls-4" d="M792.24,602.26A13.25,13.25,0,0,1,779,589v-66.6a53.05,53.05,0,0,0-53-53H666.37a13.25,13.25,0,0,1,0-26.5H726a79.59,79.59,0,0,1,79.5,79.5V589A13.25,13.25,0,0,1,792.24,602.26Z"/><path class="cls-5" d="M269.3,156.24a132.49,132.49,0,0,0-132.5,132.5A132.1,132.1,0,0,0,98,195.06,132.11,132.11,0,0,0,4.3,156.24a132.05,132.05,0,0,0,89.92-35.19A132.14,132.14,0,0,0,136.8,23.74a132.46,132.46,0,0,0,132.5,132.5Z"/><path class="cls-5" d="M1072.15,392.91a64.78,64.78,0,0,0-89.61-19.08,64.82,64.82,0,0,0,19.08-89.62,64.8,64.8,0,0,0,89.62,19.09,64.78,64.78,0,0,0-19.09,89.61Z"/><path class="cls-6" d="M1116.87,1000H83.8a6.63,6.63,0,0,1,0-13.25H1116.87a6.63,6.63,0,0,1,0,13.25Z"/><path class="cls-7" d="M579.29,597.89h-306s-16,0-16,27.49,18.62,32.36,18.62,32.36l303.45-4.88a27.49,27.49,0,1,0,0-55Z"/><path class="cls-8" d="M132.14,501.88A132.14,132.14,0,1,0,264.28,634,132.14,132.14,0,0,0,132.14,501.88Zm0,209.26A77.12,77.12,0,1,1,209.26,634,77.12,77.12,0,0,1,132.14,711.14Z"/><path class="cls-7" d="M145.61,501.88A132.14,132.14,0,1,0,277.75,634,132.14,132.14,0,0,0,145.61,501.88Zm0,209.26A77.12,77.12,0,1,1,222.73,634,77.11,77.11,0,0,1,145.61,711.14Z"/><path class="cls-8" d="M291.42,597.89s21.45,25.33,2.61,59.48l-18.19.37s6.49-28.78-2.6-59.85Z"/><polygon class="cls-8" points="540.76 686.32 540.76 653.79 514.03 653.79 514.03 686.32 465.5 686.32 465.5 725.28 514.03 725.28 514.03 705.8 541.63 705.8 541.63 725.28 590.16 725.28 590.16 686.32 540.76 686.32"/><polygon class="cls-7" points="550.22 686.32 550.22 653.79 523.48 653.79 523.48 686.32 474.95 686.32 474.95 725.28 523.48 725.28 523.48 705.8 551.08 705.8 551.08 725.28 599.61 725.28 599.61 686.32 550.22 686.32"/><polygon class="cls-8" points="523.48 672.03 550.22 663.59 550.22 653.79 523.48 653.79 523.48 672.03"/></g></g></svg>